<svg xmlns="http://www.w3.org/2000/svg" xmlns:xlink="http://www.w3.org/1999/xlink" width="500" zoomAndPan="magnify" viewBox="0 0 375 374.999991" height="500" preserveAspectRatio="xMidYMid meet" version="1.0"><defs><clipPath id="e557c77b0d"><path d="M 20.019531 141.566406 L 355 141.566406 L 355 319.316406 L 20.019531 319.316406 Z M 20.019531 141.566406 " clip-rule="nonzero"/></clipPath><clipPath id="aab04161f8"><path d="M 56.285156 57.328125 L 161.90625 57.328125 L 161.90625 162.949219 L 56.285156 162.949219 Z M 56.285156 57.328125 " clip-rule="nonzero"/></clipPath><clipPath id="69ada94ee8"><path d="M 109.09375 57.328125 C 79.929688 57.328125 56.285156 80.972656 56.285156 110.140625 C 56.285156 139.304688 79.929688 162.949219 109.09375 162.949219 C 138.261719 162.949219 161.90625 139.304688 161.90625 110.140625 C 161.90625 80.972656 138.261719 57.328125 109.09375 57.328125 Z M 109.09375 57.328125 " clip-rule="nonzero"/></clipPath><clipPath id="1f432852fe"><path d="M 0.285156 0.328125 L 105.90625 0.328125 L 105.90625 105.949219 L 0.285156 105.949219 Z M 0.285156 0.328125 " clip-rule="nonzero"/></clipPath><clipPath id="b183de5ed6"><path d="M 53.09375 0.328125 C 23.929688 0.328125 0.285156 23.972656 0.285156 53.140625 C 0.285156 82.304688 23.929688 105.949219 53.09375 105.949219 C 82.261719 105.949219 105.90625 82.304688 105.90625 53.140625 C 105.90625 23.972656 82.261719 0.328125 53.09375 0.328125 Z M 53.09375 0.328125 " clip-rule="nonzero"/></clipPath><clipPath id="888ef55b57"><rect x="0" width="106" y="0" height="106"/></clipPath><clipPath id="a8ef780b14"><path d="M 99 6.390625 L 119.25 6.390625 L 119.25 51.71875 L 99 51.71875 Z M 99 6.390625 " clip-rule="nonzero"/></clipPath><clipPath id="5c874e99bd"><path d="M 110.75 7.722656 L 119.042969 44.359375 C 119.445312 46.136719 119.015625 48 117.878906 49.421875 C 116.742188 50.84375 115.019531 51.671875 113.199219 51.671875 L 104.992188 51.671875 C 103.171875 51.671875 101.449219 50.84375 100.308594 49.421875 C 99.171875 48 98.746094 46.136719 99.148438 44.359375 L 107.441406 7.722656 C 107.613281 6.949219 108.300781 6.402344 109.09375 6.402344 C 109.886719 6.402344 110.574219 6.949219 110.75 7.722656 Z M 110.75 7.722656 " clip-rule="nonzero"/></clipPath><clipPath id="5e59e06732"><path d="M 0 0.390625 L 20.25 0.390625 L 20.25 45.71875 L 0 45.71875 Z M 0 0.390625 " clip-rule="nonzero"/></clipPath><clipPath id="006ddb347d"><path d="M 11.75 1.722656 L 20.042969 38.359375 C 20.445312 40.136719 20.015625 42 18.878906 43.421875 C 17.742188 44.84375 16.019531 45.671875 14.199219 45.671875 L 5.992188 45.671875 C 4.171875 45.671875 2.449219 44.84375 1.308594 43.421875 C 0.171875 42 -0.253906 40.136719 0.148438 38.359375 L 8.441406 1.722656 C 8.613281 0.949219 9.300781 0.402344 10.09375 0.402344 C 10.886719 0.402344 11.574219 0.949219 11.75 1.722656 Z M 11.75 1.722656 " clip-rule="nonzero"/></clipPath><clipPath id="66d0d40923"><rect x="0" width="21" y="0" height="46"/></clipPath><clipPath id="4aabacaf41"><path d="M 42 47 L 70 47 L 70 74 L 42 74 Z M 42 47 " clip-rule="nonzero"/></clipPath><clipPath id="ba0a4a8b82"><path d="M 36.796875 55.21875 L 49.691406 40.96875 L 72.140625 61.28125 L 59.246094 75.53125 Z M 36.796875 55.21875 " clip-rule="nonzero"/></clipPath><clipPath id="7a7102d33e"><path d="M 46.054688 47.507812 L 66.625 56.726562 C 68.21875 57.441406 69.371094 58.871094 69.730469 60.578125 C 70.089844 62.285156 69.609375 64.0625 68.4375 65.355469 L 62.929688 71.441406 C 61.761719 72.734375 60.042969 73.390625 58.308594 73.203125 C 56.574219 73.015625 55.035156 72.011719 54.164062 70.496094 L 42.945312 50.949219 C 42.417969 50.03125 42.542969 48.882812 43.25 48.097656 C 43.957031 47.316406 45.089844 47.078125 46.054688 47.507812 Z M 46.054688 47.507812 " clip-rule="nonzero"/></clipPath><clipPath id="be7ddbab1e"><path d="M 0.199219 0 L 28 0 L 28 26.398438 L 0.199219 26.398438 Z M 0.199219 0 " clip-rule="nonzero"/></clipPath><clipPath id="61971bad4d"><path d="M -5.203125 8.21875 L 7.691406 -6.03125 L 30.140625 14.28125 L 17.246094 28.53125 Z M -5.203125 8.21875 " clip-rule="nonzero"/></clipPath><clipPath id="01ba21c734"><path d="M 4.054688 0.507812 L 24.625 9.726562 C 26.21875 10.441406 27.371094 11.871094 27.730469 13.578125 C 28.089844 15.285156 27.609375 17.0625 26.4375 18.355469 L 20.929688 24.441406 C 19.761719 25.734375 18.042969 26.390625 16.308594 26.203125 C 14.574219 26.015625 13.035156 25.011719 12.164062 23.496094 L 0.945312 3.949219 C 0.417969 3.03125 0.542969 1.882812 1.25 1.097656 C 1.957031 0.316406 3.089844 0.078125 4.054688 0.507812 Z M 4.054688 0.507812 " clip-rule="nonzero"/></clipPath><clipPath id="c403d7c23f"><rect x="0" width="28" y="0" height="27"/></clipPath><clipPath id="0aec3072ea"><path d="M 99 169.003906 L 119.238281 169.003906 L 119.238281 213.96875 L 99 213.96875 Z M 99 169.003906 " clip-rule="nonzero"/></clipPath><clipPath id="72d6218555"><path d="M 107.414062 212.550781 L 99.148438 176.351562 C 98.746094 174.578125 99.171875 172.714844 100.304688 171.292969 C 101.441406 169.871094 103.160156 169.039062 104.980469 169.039062 L 113.1875 169.039062 C 115.007812 169.039062 116.730469 169.871094 117.863281 171.292969 C 119 172.714844 119.421875 174.578125 119.019531 176.351562 L 110.753906 212.550781 C 110.574219 213.328125 109.882812 213.878906 109.085938 213.878906 C 108.285156 213.878906 107.59375 213.328125 107.414062 212.550781 Z M 107.414062 212.550781 " clip-rule="nonzero"/></clipPath><clipPath id="dd18167d0f"><path d="M 0 0.00390625 L 20.238281 0.00390625 L 20.238281 44.96875 L 0 44.96875 Z M 0 0.00390625 " clip-rule="nonzero"/></clipPath><clipPath id="bd51f94c17"><path d="M 8.414062 43.550781 L 0.148438 7.351562 C -0.253906 5.578125 0.171875 3.714844 1.304688 2.292969 C 2.441406 0.871094 4.160156 0.0390625 5.980469 0.0390625 L 14.1875 0.0390625 C 16.007812 0.0390625 17.730469 0.871094 18.863281 2.292969 C 20 3.714844 20.421875 5.578125 20.019531 7.351562 L 11.753906 43.550781 C 11.574219 44.328125 10.882812 44.878906 10.085938 44.878906 C 9.285156 44.878906 8.59375 44.328125 8.414062 43.550781 Z M 8.414062 43.550781 " clip-rule="nonzero"/></clipPath><clipPath id="f9f3e78306"><rect x="0" width="21" y="0" height="45"/></clipPath><clipPath id="95f509d4d2"><path d="M 6.910156 100.066406 L 50.695312 100.066406 L 50.695312 120.191406 L 6.910156 120.191406 Z M 6.910156 100.066406 " clip-rule="nonzero"/></clipPath><clipPath id="fba051eade"><path d="M 8.320312 108.421875 L 43.34375 100.230469 C 45.113281 99.820312 46.972656 100.234375 48.394531 101.363281 C 49.820312 102.492188 50.648438 104.207031 50.648438 106.023438 L 50.648438 114.230469 C 50.648438 116.046875 49.820312 117.765625 48.394531 118.890625 C 46.972656 120.019531 45.113281 120.4375 43.34375 120.023438 L 8.320312 111.835938 C 7.527344 111.648438 6.96875 110.941406 6.96875 110.128906 C 6.96875 109.3125 7.527344 108.605469 8.320312 108.421875 Z M 8.320312 108.421875 " clip-rule="nonzero"/></clipPath><clipPath id="3325a4335e"><path d="M 0.921875 0.0664062 L 44.695312 0.0664062 L 44.695312 20.191406 L 0.921875 20.191406 Z M 0.921875 0.0664062 " clip-rule="nonzero"/></clipPath><clipPath id="fb1ee52e5c"><path d="M 2.320312 8.421875 L 37.34375 0.230469 C 39.113281 -0.179688 40.972656 0.234375 42.394531 1.363281 C 43.820312 2.492188 44.648438 4.207031 44.648438 6.023438 L 44.648438 14.230469 C 44.648438 16.046875 43.820312 17.765625 42.394531 18.890625 C 40.972656 20.019531 39.113281 20.4375 37.34375 20.023438 L 2.320312 11.835938 C 1.527344 11.648438 0.96875 10.941406 0.96875 10.128906 C 0.96875 9.3125 1.527344 8.605469 2.320312 8.421875 Z M 2.320312 8.421875 " clip-rule="nonzero"/></clipPath><clipPath id="3e28dfe890"><rect x="0" width="45" y="0" height="21"/></clipPath><clipPath id="acde28637a"><path d="M 167.484375 100 L 212.445312 100 L 212.445312 120.296875 L 167.484375 120.296875 Z M 167.484375 100 " clip-rule="nonzero"/></clipPath><clipPath id="266cb3ee5e"><path d="M 211.027344 111.8125 L 174.867188 120.078125 C 173.089844 120.480469 171.230469 120.058594 169.804688 118.921875 C 168.382812 117.789062 167.554688 116.066406 167.554688 114.246094 L 167.554688 106.039062 C 167.554688 104.21875 168.382812 102.5 169.804688 101.363281 C 171.230469 100.230469 173.089844 99.804688 174.867188 100.210938 L 211.027344 108.472656 C 211.804688 108.652344 212.359375 109.34375 212.359375 110.144531 C 212.359375 110.941406 211.804688 111.636719 211.027344 111.8125 Z M 211.027344 111.8125 " clip-rule="nonzero"/></clipPath><clipPath id="11423f463c"><path d="M 0.484375 0 L 45.359375 0 L 45.359375 20.296875 L 0.484375 20.296875 Z M 0.484375 0 " clip-rule="nonzero"/></clipPath><clipPath id="595e0e36a8"><path d="M 44.027344 11.8125 L 7.867188 20.078125 C 6.089844 20.480469 4.230469 20.058594 2.804688 18.921875 C 1.382812 17.789062 0.554688 16.066406 0.554688 14.246094 L 0.554688 6.039062 C 0.554688 4.21875 1.382812 2.5 2.804688 1.363281 C 4.230469 0.230469 6.089844 -0.195312 7.867188 0.210938 L 44.027344 8.472656 C 44.804688 8.652344 45.359375 9.34375 45.359375 10.144531 C 45.359375 10.941406 44.804688 11.636719 44.027344 11.8125 Z M 44.027344 11.8125 " clip-rule="nonzero"/></clipPath><clipPath id="ec4f4ee18d"><rect x="0" width="46" y="0" height="21"/></clipPath><clipPath id="fcb5d17a1a"><path d="M 146 149 L 172 149 L 172 178 L 146 178 Z M 146 149 " clip-rule="nonzero"/></clipPath><clipPath id="1fd5930e6a"><path d="M 178.292969 170.546875 L 163.550781 182.875 L 143.890625 159.371094 L 158.632812 147.042969 Z M 178.292969 170.546875 " clip-rule="nonzero"/></clipPath><clipPath id="d8c4a04e81"><path d="M 168.066406 176.878906 L 148.710938 164.660156 C 147.230469 163.726562 146.289062 162.144531 146.171875 160.402344 C 146.054688 158.660156 146.78125 156.964844 148.121094 155.84375 L 154.414062 150.578125 C 155.753906 149.457031 157.550781 149.046875 159.246094 149.46875 C 160.941406 149.890625 162.332031 151.097656 162.988281 152.71875 L 171.589844 173.933594 C 171.984375 174.902344 171.707031 176.015625 170.902344 176.6875 C 170.097656 177.363281 168.953125 177.4375 168.066406 176.878906 Z M 168.066406 176.878906 " clip-rule="nonzero"/></clipPath><clipPath id="083b0d35f4"><path d="M 0 0 L 26 0 L 26 28.558594 L 0 28.558594 Z M 0 0 " clip-rule="nonzero"/></clipPath><clipPath id="4917f42a1b"><path d="M 32.292969 21.546875 L 17.550781 33.875 L -2.109375 10.371094 L 12.632812 -1.957031 Z M 32.292969 21.546875 " clip-rule="nonzero"/></clipPath><clipPath id="ca38afdbcb"><path d="M 22.066406 27.878906 L 2.710938 15.660156 C 1.230469 14.726562 0.289062 13.144531 0.171875 11.402344 C 0.0546875 9.660156 0.78125 7.964844 2.121094 6.84375 L 8.414062 1.578125 C 9.753906 0.457031 11.550781 0.046875 13.246094 0.46875 C 14.941406 0.890625 16.332031 2.097656 16.988281 3.71875 L 25.589844 24.933594 C 25.984375 25.902344 25.707031 27.015625 24.902344 27.6875 C 24.097656 28.363281 22.953125 28.4375 22.066406 27.878906 Z M 22.066406 27.878906 " clip-rule="nonzero"/></clipPath><clipPath id="5bf24e8897"><rect x="0" width="26" y="0" height="29"/></clipPath><clipPath id="d0b09f4f40"><path d="M 148 47 L 177 47 L 177 74 L 148 74 Z M 148 47 " clip-rule="nonzero"/></clipPath><clipPath id="612ecb092f"><path d="M 169.90625 41.15625 L 182.289062 55.855469 L 158.921875 75.539062 L 146.542969 60.839844 Z M 169.90625 41.15625 " clip-rule="nonzero"/></clipPath><clipPath id="262aab95b8"><path d="M 176.285156 51.363281 L 164.242188 70.648438 C 163.320312 72.128906 161.742188 73.078125 160 73.199219 C 158.257812 73.324219 156.5625 72.609375 155.4375 71.273438 L 150.152344 64.996094 C 149.027344 63.660156 148.609375 61.867188 149.027344 60.171875 C 149.445312 58.476562 150.648438 57.085938 152.265625 56.425781 L 173.3125 47.835938 C 174.289062 47.441406 175.40625 47.714844 176.082031 48.519531 C 176.761719 49.324219 176.84375 50.472656 176.285156 51.363281 Z M 176.285156 51.363281 " clip-rule="nonzero"/></clipPath><clipPath id="30fa1b6a29"><path d="M 0.519531 0.238281 L 29 0.238281 L 29 26.398438 L 0.519531 26.398438 Z M 0.519531 0.238281 " clip-rule="nonzero"/></clipPath><clipPath id="75f05b6c4b"><path d="M 21.90625 -5.84375 L 34.289062 8.855469 L 10.921875 28.539062 L -1.457031 13.839844 Z M 21.90625 -5.84375 " clip-rule="nonzero"/></clipPath><clipPath id="8066bd00aa"><path d="M 28.285156 4.363281 L 16.242188 23.648438 C 15.320312 25.128906 13.742188 26.078125 12 26.199219 C 10.257812 26.324219 8.5625 25.609375 7.4375 24.273438 L 2.152344 17.996094 C 1.027344 16.660156 0.609375 14.867188 1.027344 13.171875 C 1.445312 11.476562 2.648438 10.085938 4.265625 9.425781 L 25.3125 0.835938 C 26.289062 0.441406 27.40625 0.714844 28.082031 1.519531 C 28.761719 2.324219 28.84375 3.472656 28.285156 4.363281 Z M 28.285156 4.363281 " clip-rule="nonzero"/></clipPath><clipPath id="a5b1548351"><rect x="0" width="29" y="0" height="27"/></clipPath><clipPath id="cd11bfe765"><path d="M 44 150 L 73 150 L 73 176 L 44 176 Z M 44 150 " clip-rule="nonzero"/></clipPath><clipPath id="534e0c7fac"><path d="M 51.570312 182.445312 L 38.945312 167.953125 L 62.1875 147.707031 L 74.808594 162.199219 Z M 51.570312 182.445312 " clip-rule="nonzero"/></clipPath><clipPath id="4ac4eafee4"><path d="M 45.039062 172.355469 L 56.957031 152.652344 C 57.863281 151.15625 59.425781 150.183594 61.167969 150.03125 C 62.910156 149.882812 64.617188 150.574219 65.765625 151.890625 L 71.15625 158.078125 C 72.304688 159.394531 72.753906 161.183594 72.367188 162.886719 C 71.980469 164.59375 70.800781 166.007812 69.195312 166.699219 L 48.046875 175.804688 C 47.085938 176.21875 45.96875 175.964844 45.28125 175.175781 C 44.597656 174.390625 44.496094 173.25 45.039062 172.355469 Z M 45.039062 172.355469 " clip-rule="nonzero"/></clipPath><clipPath id="69f833be2a"><path d="M 0.359375 0 L 28.921875 0 L 28.921875 26 L 0.359375 26 Z M 0.359375 0 " clip-rule="nonzero"/></clipPath><clipPath id="e40dc3ab6a"><path d="M 7.570312 32.445312 L -5.054688 17.953125 L 18.1875 -2.292969 L 30.808594 12.199219 Z M 7.570312 32.445312 " clip-rule="nonzero"/></clipPath><clipPath id="e4bab582a7"><path d="M 1.039062 22.355469 L 12.957031 2.652344 C 13.863281 1.15625 15.425781 0.183594 17.167969 0.03125 C 18.910156 -0.117188 20.617188 0.574219 21.765625 1.890625 L 27.15625 8.078125 C 28.304688 9.394531 28.753906 11.183594 28.367188 12.886719 C 27.980469 14.59375 26.800781 16.007812 25.195312 16.699219 L 4.046875 25.804688 C 3.085938 26.21875 1.96875 25.964844 1.28125 25.175781 C 0.597656 24.390625 0.496094 23.25 1.039062 22.355469 Z M 1.039062 22.355469 " clip-rule="nonzero"/></clipPath><clipPath id="0caec0f54c"><rect x="0" width="29" y="0" height="26"/></clipPath><clipPath id="054a2dcbd4"><rect x="0" width="219" y="0" height="221"/></clipPath></defs><g clip-path="url(#e557c77b0d)"><path fill="#6284b2" d="M 293.679688 196.78125 C 288.125 196.78125 282.746094 197.535156 277.632812 198.917969 C 266.210938 165.683594 234.695312 141.785156 197.582031 141.785156 C 162.371094 141.785156 132.191406 163.292969 119.433594 193.882812 C 114.886719 192.4375 110.042969 191.65625 105.019531 191.65625 C 78.710938 191.65625 57.382812 212.984375 57.382812 239.296875 C 57.382812 239.328125 57.382812 239.359375 57.382812 239.390625 C 36.523438 240.746094 20.019531 258.089844 20.019531 279.292969 C 20.019531 301.386719 37.925781 319.292969 60.015625 319.292969 C 60.628906 319.292969 61.238281 319.273438 61.84375 319.246094 L 61.847656 319.292969 L 62.15625 319.234375 C 62.429688 319.21875 62.703125 319.195312 62.976562 319.171875 L 288.976562 319.171875 C 290.53125 319.292969 292.097656 319.371094 293.679688 319.371094 C 327.535156 319.371094 354.976562 291.929688 354.976562 258.078125 C 354.976562 224.226562 327.535156 196.78125 293.679688 196.78125 Z M 293.679688 196.78125 " fill-opacity="1" fill-rule="nonzero"/></g><g transform="matrix(1, 0, 0, 1, 19, 55)"><g clip-path="url(#054a2dcbd4)"><g clip-path="url(#aab04161f8)"><g clip-path="url(#69ada94ee8)"><g transform="matrix(1, 0, 0, 1, 56, 57)"><g clip-path="url(#888ef55b57)"><g clip-path="url(#1f432852fe)"><g clip-path="url(#b183de5ed6)"><path fill="#fafffc" d="M 0.285156 0.328125 L 105.90625 0.328125 L 105.90625 105.949219 L 0.285156 105.949219 Z M 0.285156 0.328125 " fill-opacity="1" fill-rule="nonzero"/></g></g></g></g></g></g><g clip-path="url(#a8ef780b14)"><g clip-path="url(#5c874e99bd)"><g transform="matrix(1, 0, 0, 1, 99, 6)"><g clip-path="url(#66d0d40923)"><g clip-path="url(#5e59e06732)"><g clip-path="url(#006ddb347d)"><path fill="#fafffc" d="M -1.507812 -5.589844 L 21.699219 -5.589844 L 21.699219 45.71875 L -1.507812 45.71875 Z M -1.507812 -5.589844 " fill-opacity="1" fill-rule="nonzero"/></g></g></g></g></g></g><g clip-path="url(#4aabacaf41)"><g clip-path="url(#ba0a4a8b82)"><g clip-path="url(#7a7102d33e)"><g transform="matrix(1, 0, 0, 1, 42, 47)"><g clip-path="url(#c403d7c23f)"><g clip-path="url(#be7ddbab1e)"><g clip-path="url(#61971bad4d)"><g clip-path="url(#01ba21c734)"><path fill="#fafffc" d="M -10.574219 6.046875 L 4.996094 -11.160156 L 31.480469 12.804688 L 15.910156 30.011719 Z M -10.574219 6.046875 " fill-opacity="1" fill-rule="nonzero"/></g></g></g></g></g></g></g></g><g clip-path="url(#0aec3072ea)"><g clip-path="url(#72d6218555)"><g transform="matrix(1, 0, 0, 1, 99, 169)"><g clip-path="url(#f9f3e78306)"><g clip-path="url(#dd18167d0f)"><g clip-path="url(#bd51f94c17)"><path fill="#fafffc" d="M 21.6875 50.859375 L -1.519531 50.859375 L -1.519531 0.00390625 L 21.6875 0.00390625 Z M 21.6875 50.859375 " fill-opacity="1" fill-rule="nonzero"/></g></g></g></g></g></g><g clip-path="url(#95f509d4d2)"><g clip-path="url(#fba051eade)"><g transform="matrix(1, 0, 0, 1, 6, 100)"><g clip-path="url(#3e28dfe890)"><g clip-path="url(#3325a4335e)"><g clip-path="url(#fb1ee52e5c)"><path fill="#fafffc" d="M -4.980469 21.730469 L -4.980469 -1.476562 L 44.605469 -1.476562 L 44.605469 21.730469 Z M -4.980469 21.730469 " fill-opacity="1" fill-rule="nonzero"/></g></g></g></g></g></g><g clip-path="url(#acde28637a)"><g clip-path="url(#266cb3ee5e)"><g transform="matrix(1, 0, 0, 1, 167, 100)"><g clip-path="url(#ec4f4ee18d)"><g clip-path="url(#11423f463c)"><g clip-path="url(#595e0e36a8)"><path fill="#fafffc" d="M 51.339844 -1.460938 L 51.339844 21.746094 L 0.574219 21.746094 L 0.574219 -1.460938 Z M 51.339844 -1.460938 " fill-opacity="1" fill-rule="nonzero"/></g></g></g></g></g></g><g clip-path="url(#fcb5d17a1a)"><g clip-path="url(#1fd5930e6a)"><g clip-path="url(#d8c4a04e81)"><g transform="matrix(1, 0, 0, 1, 146, 149)"><g clip-path="url(#5bf24e8897)"><g clip-path="url(#083b0d35f4)"><g clip-path="url(#4917f42a1b)"><g clip-path="url(#ca38afdbcb)"><path fill="#fafffc" d="M 37.3125 24.4375 L 19.507812 39.328125 L -3.636719 11.652344 L 14.164062 -3.238281 Z M 37.3125 24.4375 " fill-opacity="1" fill-rule="nonzero"/></g></g></g></g></g></g></g></g><g clip-path="url(#d0b09f4f40)"><g clip-path="url(#612ecb092f)"><g clip-path="url(#262aab95b8)"><g transform="matrix(1, 0, 0, 1, 148, 47)"><g clip-path="url(#a5b1548351)"><g clip-path="url(#30fa1b6a29)"><g clip-path="url(#75f05b6c4b)"><g clip-path="url(#8066bd00aa)"><path fill="#fafffc" d="M 24.785156 -10.871094 L 39.734375 6.878906 L 12.277344 30.003906 L -2.671875 12.253906 Z M 24.785156 -10.871094 " fill-opacity="1" fill-rule="nonzero"/></g></g></g></g></g></g></g></g><g clip-path="url(#cd11bfe765)"><g clip-path="url(#534e0c7fac)"><g clip-path="url(#4ac4eafee4)"><g transform="matrix(1, 0, 0, 1, 44, 150)"><g clip-path="url(#0caec0f54c)"><g clip-path="url(#69f833be2a)"><g clip-path="url(#e40dc3ab6a)"><g clip-path="url(#e4bab582a7)"><path fill="#fafffc" d="M 4.777344 37.519531 L -10.464844 20.023438 L 16.808594 -3.738281 L 32.050781 13.761719 Z M 4.777344 37.519531 " fill-opacity="1" fill-rule="nonzero"/></g></g></g></g></g></g></g></g></g></g></svg>